<?xml version="1.0" encoding="utf-8"?>
<!-- Generator: Adobe Illustrator 18.0.0, SVG Export Plug-In . SVG Version: 6.00 Build 0)  -->
<!DOCTYPE svg PUBLIC "-//W3C//DTD SVG 1.1//EN" "http://www.w3.org/Graphics/SVG/1.1/DTD/svg11.dtd">
<svg version="1.1" id="Capa_1" xmlns="http://www.w3.org/2000/svg" xmlns:xlink="http://www.w3.org/1999/xlink" x="0px" y="0px"
	 viewBox="0 0 455.3 221.9" enable-background="new 0 0 455.3 221.9" xml:space="preserve">
<g>
	<polygon fill="#FFFFFF" points="222.5,162.3 222.5,162.3 222.5,162.3 	"/>
</g>
<g>
	<path fill="none" d="M111.9,162.3l28.3-25.8l0.2-62.5L60.9,15.6l0.3,87.9l33.3-0.1c1.2,0,2.3,0.5,3.2,1.3c0.9,0.8,1.3,2,1.3,3.2
		l0,114h11.4l0-56.2C110.4,164.4,111,163.2,111.9,162.3z"/>
	<path fill="none" d="M10.5,112.7v109.2H90l0-109.5L10.5,112.7z M42.2,178.9c0,0.5-0.2,1-0.6,1.4c-0.4,0.4-0.9,0.6-1.4,0.6H20.5
		c-0.5,0-1-0.2-1.4-0.6c-0.4-0.4-0.6-0.9-0.6-1.4v-14.2c0-0.5,0.2-1,0.6-1.4c0.4-0.4,0.9-0.6,1.4-0.6h19.7c0.5,0,1,0.2,1.4,0.6
		c0.4,0.4,0.6,0.9,0.6,1.4V178.9z M42.2,157.7c0,0.5-0.2,1-0.6,1.4c-0.4,0.4-0.9,0.6-1.4,0.6H20.5c-0.5,0-1-0.2-1.4-0.6
		c-0.4-0.4-0.6-0.9-0.6-1.4v-14.2c0-0.5,0.2-1,0.6-1.4c0.4-0.4,0.9-0.6,1.4-0.6h19.7c0.5,0,1,0.2,1.4,0.6c0.4,0.4,0.6,0.9,0.6,1.4
		V157.7z M42.2,136.6c0,0.5-0.2,1-0.6,1.4c-0.4,0.4-0.9,0.6-1.4,0.6H20.5c-0.5,0-1-0.2-1.4-0.6c-0.4-0.4-0.6-0.9-0.6-1.4v-14.2
		c0-0.5,0.2-1,0.6-1.4c0.4-0.4,0.9-0.6,1.4-0.6h19.7c0.5,0,1,0.2,1.4,0.6c0.4,0.4,0.6,0.9,0.6,1.4V136.6z M81.9,178.9
		c0,0.5-0.2,1-0.6,1.4c-0.4,0.4-0.9,0.6-1.4,0.6H60.2c-0.5,0-1-0.2-1.4-0.6c-0.4-0.4-0.6-0.9-0.6-1.4v-14.2c0-0.5,0.2-1,0.6-1.4
		c0.4-0.4,0.9-0.6,1.4-0.6h19.7c0.5,0,1,0.2,1.4,0.6c0.4,0.4,0.6,0.9,0.6,1.4V178.9z M81.9,157.7c0,0.5-0.2,1-0.6,1.4
		c-0.4,0.4-0.9,0.6-1.4,0.6H60.2c-0.5,0-1-0.2-1.4-0.6c-0.4-0.4-0.6-0.9-0.6-1.4v-14.2c0-0.5,0.2-1,0.6-1.4c0.4-0.4,0.9-0.6,1.4-0.6
		h19.7c0.5,0,1,0.2,1.4,0.6c0.4,0.4,0.6,0.9,0.6,1.4V157.7z M81.9,136.6c0,0.5-0.2,1-0.6,1.4c-0.4,0.4-0.9,0.6-1.4,0.6H60.2
		c-0.5,0-1-0.2-1.4-0.6c-0.4-0.4-0.6-0.9-0.6-1.4v-14.2c0-0.5,0.2-1,0.6-1.4c0.4-0.4,0.9-0.6,1.4-0.6h19.7c0.5,0,1,0.2,1.4,0.6
		c0.4,0.4,0.6,0.9,0.6,1.4V136.6z"/>
	<rect x="62.2" y="124.4" fill="none" width="15.7" height="10.2"/>
	<rect x="165.6" y="193.5" fill="none" width="14.7" height="28.4"/>
	<rect x="22.5" y="166.7" fill="none" width="15.7" height="10.2"/>
	<rect x="62.2" y="145.5" fill="none" width="15.7" height="10.2"/>
	<rect x="22.5" y="124.4" fill="none" width="15.7" height="10.2"/>
	<rect x="22.5" y="145.5" fill="none" width="15.7" height="10.2"/>
	<rect x="62.2" y="166.7" fill="none" width="15.7" height="10.2"/>
	<rect x="135.2" y="176.6" fill="none" width="14.7" height="9.2"/>
	<path fill="none" d="M158.2,132.4l-38.7,35.3l0,54.3h41.2V191c0-0.7,0.3-1.3,0.7-1.8s1.1-0.7,1.8-0.7h19.7c0.7,0,1.3,0.3,1.8,0.7
		s0.7,1.1,0.7,1.8v30.9h10.8v-54.7L158.2,132.4z M154.8,188.3c0,0.7-0.3,1.3-0.7,1.8s-1.1,0.7-1.8,0.7h-19.7c-0.7,0-1.3-0.3-1.8-0.7
		s-0.7-1.1-0.7-1.8v-14.2c0-0.7,0.3-1.3,0.7-1.8s1.1-0.7,1.8-0.7h19.7c0.7,0,1.3,0.3,1.8,0.7s0.7,1.1,0.7,1.8V188.3z"/>
	<path fill="#FFFFFF" d="M203.7,162l-42.5-39c-1.7-1.6-4.3-1.6-6.1,0l-5.9,5.4l0.2-56.5c0-1.4-0.7-2.8-1.8-3.6L59,3.1
		c-1.4-1-3.2-1.2-4.7-0.4c-1.5,0.8-2.5,2.3-2.5,4l0.3,96.8L6,103.7c-2.5,0-4.5,2-4.5,4.5v113.7h9V112.7l79.5-0.3l0,109.5h9l0-114
		c0-1.2-0.5-2.3-1.3-3.2c-0.9-0.8-2-1.3-3.2-1.3l-33.3,0.1l-0.3-87.9l79.5,58.4l-0.2,62.5l-28.3,25.8c-0.9,0.9-1.5,2.1-1.5,3.3
		l0,56.2h9l0-54.3l38.7-35.3l38,34.9v54.7h9v-56.6C205.1,164,204.6,162.8,203.7,162z"/>
	<path fill="#FFFFFF" d="M41.6,121c-0.4-0.4-0.9-0.6-1.4-0.6H20.5c-0.5,0-1,0.2-1.4,0.6c-0.4,0.4-0.6,0.9-0.6,1.4v14.2
		c0,0.5,0.2,1,0.6,1.4c0.4,0.4,0.9,0.6,1.4,0.6h19.7c0.5,0,1-0.2,1.4-0.6c0.4-0.4,0.6-0.9,0.6-1.4v-14.2
		C42.2,121.8,42,121.3,41.6,121z M38.2,134.6H22.5v-10.2h15.7V134.6z"/>
	<rect x="38.2" y="155.7" fill="#FFFFFF" width="2" height="2"/>
	<path fill="#FFFFFF" d="M41.6,142.1c-0.4-0.4-0.9-0.6-1.4-0.6H20.5c-0.5,0-1,0.2-1.4,0.6c-0.4,0.4-0.6,0.9-0.6,1.4v14.2
		c0,0.5,0.2,1,0.6,1.4c0.4,0.4,0.9,0.6,1.4,0.6h19.7c0.5,0,1-0.2,1.4-0.6c0.4-0.4,0.6-0.9,0.6-1.4v-14.2
		C42.2,143,42,142.5,41.6,142.1z M38.2,157.7v-2H22.5v-10.2h15.7v10.2h2v2H38.2z"/>
	<rect x="38.2" y="176.9" fill="#FFFFFF" width="2" height="2"/>
	<path fill="#FFFFFF" d="M41.6,163.3c-0.4-0.4-0.9-0.6-1.4-0.6H20.5c-0.5,0-1,0.2-1.4,0.6c-0.4,0.4-0.6,0.9-0.6,1.4v14.2
		c0,0.5,0.2,1,0.6,1.4c0.4,0.4,0.9,0.6,1.4,0.6h19.7c0.5,0,1-0.2,1.4-0.6c0.4-0.4,0.6-0.9,0.6-1.4v-14.2
		C42.2,164.2,42,163.7,41.6,163.3z M38.2,178.9v-2H22.5v-10.2h15.7v10.2h2v2H38.2z"/>
	<rect x="149.8" y="185.8" fill="#FFFFFF" width="2.5" height="2.5"/>
	<path fill="#FFFFFF" d="M152.3,171.6h-19.7c-0.7,0-1.3,0.3-1.8,0.7s-0.7,1.1-0.7,1.8v14.2c0,0.7,0.3,1.3,0.7,1.8s1.1,0.7,1.8,0.7
		h19.7c0.7,0,1.3-0.3,1.8-0.7s0.7-1.1,0.7-1.8h-2.5h-2.5v-2.5h-14.7v-9.2h14.7v9.2h2.5v2.5h2.5v-14.2c0-0.7-0.3-1.3-0.7-1.8
		S153,171.6,152.3,171.6z"/>
	<rect x="77.9" y="134.6" fill="#FFFFFF" width="2" height="2"/>
	<path fill="#FFFFFF" d="M81.3,121c-0.4-0.4-0.9-0.6-1.4-0.6H60.2c-0.5,0-1,0.2-1.4,0.6c-0.4,0.4-0.6,0.9-0.6,1.4v14.2
		c0,0.5,0.2,1,0.6,1.4c0.4,0.4,0.9,0.6,1.4,0.6h19.7c0.5,0,1-0.2,1.4-0.6c0.4-0.4,0.6-0.9,0.6-1.4v-14.2
		C81.9,121.8,81.6,121.3,81.3,121z M79.9,136.6h-2v-2H62.2v-10.2h15.7v10.2h2V136.6z"/>
	<path fill="#FFFFFF" d="M81.3,142.1c-0.4-0.4-0.9-0.6-1.4-0.6H60.2c-0.5,0-1,0.2-1.4,0.6c-0.4,0.4-0.6,0.9-0.6,1.4v14.2
		c0,0.5,0.2,1,0.6,1.4c0.4,0.4,0.9,0.6,1.4,0.6h19.7c0.5,0,1-0.2,1.4-0.6c0.4-0.4,0.6-0.9,0.6-1.4v-14.2
		C81.9,143,81.6,142.5,81.3,142.1z M62.2,145.5h15.7v10.2H62.2V145.5z"/>
	<path fill="#FFFFFF" d="M81.3,163.3c-0.4-0.4-0.9-0.6-1.4-0.6H60.2c-0.5,0-1,0.2-1.4,0.6c-0.4,0.4-0.6,0.9-0.6,1.4v14.2
		c0,0.5,0.2,1,0.6,1.4c0.4,0.4,0.9,0.6,1.4,0.6h19.7c0.5,0,1-0.2,1.4-0.6c0.4-0.4,0.6-0.9,0.6-1.4v-14.2
		C81.9,164.2,81.6,163.7,81.3,163.3z M62.2,166.7h15.7v10.2H62.2V166.7z"/>
	<path fill="#FFFFFF" d="M184.6,189.2c-0.5-0.5-1.1-0.7-1.8-0.7h-19.7c-0.7,0-1.3,0.3-1.8,0.7s-0.7,1.1-0.7,1.8v30.9h5v-28.4h14.7
		v28.4h5V191C185.3,190.3,185.1,189.7,184.6,189.2z"/>
</g>
<g>
	<path fill="#FFFFFF" d="M364.5,34.9h22l-2.6,9.9h-10.1l-1.1,4.2h9.9l-2.5,9.4h-9.9l-1.2,4.4h10.5l-2.6,9.9h-22.4L364.5,34.9z
		 M374,68.2l0.4-1.4h-11.2l3.3-12.4h10.6l0.4-1.4h-10.6l3.2-12.3h11.2l0.4-1.4h-12.7l-7.6,28.8H374z"/>
	<path fill="#FFFFFF" d="M421.2,49.3c-0.7,2.6-1.7,4.8-3.1,6.7c-1.4,1.8-3,3.3-4.8,4.5c-1.8,1.1-3.9,2-6.1,2.5
		c-2.2,0.5-4.5,0.8-6.9,0.8l-2.4,9h-11.9l10-37.8h11.9c2.4,0,4.5,0.3,6.5,0.8c1.9,0.5,3.5,1.4,4.8,2.5s2.1,2.6,2.5,4.5
		C422,44.5,421.9,46.7,421.2,49.3z M415.8,49.3c0.5-1.7,0.6-3.2,0.3-4.4c-0.2-1.2-0.8-2.3-1.6-3.1c-0.8-0.8-1.9-1.4-3.3-1.8
		c-1.3-0.4-2.8-0.6-4.5-0.6h-6.3l-7.6,28.8h1.5l2.4-9h4.9c1.7,0,3.3-0.2,4.8-0.6c1.5-0.4,2.9-1,4.2-1.8c1.3-0.8,2.3-1.8,3.2-3.1
		C414.6,52.5,415.3,51,415.8,49.3z M414.2,49.3c-0.4,1.6-1.1,3-1.9,4.1c-0.9,1.1-1.8,2-2.9,2.6c-1.1,0.6-2.3,1.1-3.6,1.4
		s-2.6,0.4-3.9,0.4h-4.9l4.5-17h4.9c1.3,0,2.6,0.1,3.7,0.4c1.1,0.3,2.1,0.7,2.9,1.4c0.8,0.6,1.3,1.5,1.6,2.6
		C414.7,46.3,414.6,47.7,414.2,49.3z M402.9,53.5h0.5c1.6,0,2.8-0.4,3.7-1.1c0.9-0.7,1.5-1.8,1.9-3.1c0.3-1.3,0.3-2.4-0.2-3.1
		s-1.5-1.1-3.1-1.1h-0.5L402.9,53.5z"/>
	<path fill="#FFFFFF" d="M440.1,34.9h9l4.2,37.8h-11.8l-0.3-3.4h-11.3l-2.1,3.4h-11.8L440.1,34.9z M425.4,68.2l1.8-2.8h18.5l0.3,2.8
		h1.6l-3.2-28.8h-2.1l-18.4,28.8H425.4z M443,40.8l2.6,23.2h-17.5L443,40.8z M440.2,61l-0.8-6.6l-4.3,6.6H440.2z"/>
	<path fill="#E27F3A" d="M262.8,99.1l-5.1-18.3h13l1.7,6.2l5-6.2h13.1l-14.7,18.3l5.5,19.6h-13l-2.1-7.5l-6.1,7.5h-13L262.8,99.1z
		 M268.8,100.6l3.8,13.5h1.7l-4.2-15l11.1-13.7h-1.7l-9.8,12.2l-3.4-12.2h-1.7l3.8,13.7l-12.2,15h1.7L268.8,100.6z"/>
	<path fill="#E27F3A" d="M323,95.2c-0.7,2.6-1.7,4.8-3.1,6.7c-1.4,1.8-3,3.3-4.8,4.5s-3.9,2-6.1,2.5c-2.2,0.5-4.5,0.8-6.9,0.8
		l-2.4,9h-11.9l10-37.8h11.9c2.4,0,4.5,0.3,6.5,0.8c1.9,0.5,3.5,1.4,4.8,2.5c1.2,1.1,2.1,2.6,2.5,4.5
		C323.8,90.4,323.7,92.6,323,95.2z M317.6,95.2c0.5-1.7,0.6-3.2,0.3-4.4c-0.2-1.2-0.8-2.3-1.6-3.1c-0.8-0.8-1.9-1.4-3.3-1.8
		s-2.8-0.6-4.5-0.6h-6.3l-7.6,28.8h1.5l2.4-9h4.9c1.7,0,3.3-0.2,4.8-0.6s2.9-1,4.2-1.8c1.3-0.8,2.3-1.8,3.2-3.1
		C316.5,98.4,317.1,96.9,317.6,95.2z M316,95.2c-0.4,1.6-1.1,3-1.9,4.1c-0.9,1.1-1.8,2-2.9,2.6c-1.1,0.6-2.3,1.1-3.6,1.4
		c-1.3,0.3-2.6,0.4-3.9,0.4h-4.9l4.5-17h4.9c1.3,0,2.6,0.1,3.7,0.4c1.1,0.3,2.1,0.7,2.9,1.4c0.8,0.6,1.3,1.5,1.6,2.6
		C316.5,92.2,316.4,93.6,316,95.2z M304.8,99.4h0.5c1.6,0,2.8-0.4,3.7-1.1s1.5-1.8,1.9-3.1c0.4-1.3,0.3-2.4-0.2-3.1
		c-0.5-0.7-1.5-1.1-3.1-1.1H307L304.8,99.4z"/>
	<path fill="#E27F3A" d="M335.3,80.8h12.9c2.4,0,4.5,0.3,6.4,1c1.9,0.6,3.4,1.6,4.5,2.8c1.2,1.2,1.9,2.8,2.3,4.6
		c0.4,1.8,0.2,3.9-0.4,6.3c-0.5,1.9-1.2,3.5-2.1,4.8c-0.9,1.3-1.7,2.4-2.6,3.3c-1,1-2.1,1.8-3.2,2.5l3.7,12.5h-14l-3.1-9.6l-2.5,9.6
		h-11.9L335.3,80.8z M340.4,105.5c1.5,0,2.9-0.2,4.4-0.5l2.9,9.1h1.7l-3.1-9.5c2.2-0.7,4.1-1.8,5.7-3.3c1.6-1.5,2.7-3.4,3.3-5.8
		c0.4-1.7,0.5-3.1,0.2-4.4s-0.9-2.3-1.8-3.1c-0.9-0.9-2-1.5-3.4-1.9c-1.4-0.4-2.9-0.7-4.7-0.7h-6l-7.6,28.8h1.5l2.3-8.6H340.4z
		 M336.2,104.1l4.6-17.4h4.6c3.4,0,5.9,0.8,7.4,2.3c1.5,1.5,1.9,3.7,1.2,6.5c-0.7,2.8-2.3,4.9-4.6,6.4c-2.3,1.5-5.2,2.2-8.6,2.2
		H336.2z M342.3,99.4h0.6c1.4,0,2.7-0.3,3.9-1c1.2-0.6,1.9-1.7,2.3-3.2c0.4-1.5,0.2-2.6-0.6-3.2s-1.9-1-3.4-1h-0.6L342.3,99.4z"/>
	<path fill="#E27F3A" d="M373.6,80.8h22l-2.6,9.9h-10.1l-1.1,4.2h9.9l-2.5,9.4h-9.9l-1.2,4.4h10.5l-2.6,9.9h-22.4L373.6,80.8z
		 M383,114.1l0.4-1.4h-11.2l3.3-12.4h10.6l0.4-1.4h-10.6l3.2-12.3h11.2l0.4-1.4H378l-7.6,28.8H383z"/>
	<path fill="#E27F3A" d="M396.5,106.9c0.8,0.3,1.6,0.5,2.4,0.6c0.7,0.2,1.5,0.3,2.4,0.5c0.9,0.1,1.9,0.2,2.8,0.2
		c1.7,0,2.7-0.6,3.1-1.9c0.1-0.5,0-1-0.4-1.5c-0.4-0.5-0.9-1.1-1.5-1.7c-0.6-0.6-1.3-1.3-2-2.1c-0.7-0.8-1.3-1.6-1.9-2.6
		c-0.5-1-0.9-2.1-1.1-3.3c-0.2-1.2-0.1-2.6,0.3-4.2c0.5-1.8,1.2-3.3,2.2-4.7c1-1.4,2.2-2.5,3.5-3.4c1.4-0.9,2.9-1.6,4.5-2.1
		c1.6-0.5,3.3-0.7,5-0.7c0.9,0,1.8,0,2.6,0.1c0.9,0.1,1.7,0.2,2.3,0.3c0.8,0.1,1.6,0.2,2.3,0.3l-2.8,10.6c-0.3,0-0.6-0.1-1-0.1
		c-0.3,0-0.6-0.1-1-0.1c-0.4,0-0.8-0.1-1.2-0.1c-0.2,0-0.5,0-0.8,0c-0.3,0-0.7,0.1-1,0.1c-0.3,0.1-0.6,0.2-0.9,0.4
		c-0.3,0.2-0.5,0.5-0.5,0.8c-0.1,0.3,0.1,0.7,0.5,1.1c0.4,0.5,0.9,1,1.4,1.6c0.6,0.6,1.2,1.3,1.9,2.1c0.7,0.8,1.2,1.7,1.7,2.7
		c0.5,1,0.8,2.2,0.9,3.5c0.2,1.3,0,2.7-0.4,4.3c-0.4,1.7-1.1,3.2-2,4.7c-0.9,1.5-2.1,2.7-3.4,3.8c-1.4,1.1-3,1.9-4.9,2.6
		s-4,0.9-6.4,0.9c-1.4,0-2.7-0.1-3.9-0.2c-1.2-0.1-2.2-0.3-3.1-0.5c-1-0.2-2-0.4-2.8-0.7L396.5,106.9z M399.4,113.7
		c0.5,0.1,1,0.2,1.6,0.3c0.5,0.1,1,0.1,1.6,0.2c0.6,0.1,1.1,0.1,1.7,0.1c1,0,2.1-0.1,3.1-0.4c1.1-0.2,2-0.7,3-1.2
		c0.9-0.6,1.8-1.3,2.5-2.2c0.7-0.9,1.2-2,1.6-3.3c0.3-1.1,0.3-2.1,0-3.1c-0.3-1-0.7-1.9-1.3-2.8c-0.6-0.9-1.3-1.8-2-2.6
		c-0.7-0.8-1.4-1.7-2-2.5c-0.6-0.9-1.1-1.7-1.4-2.6c-0.3-0.9-0.4-1.7-0.1-2.6c0.4-1.4,1.1-2.4,2.1-3.1c1.1-0.7,2.5-1.1,4.4-1.1
		c0.3,0,0.6,0,0.9,0c0.3,0,0.6,0,0.9,0.1c0.3,0,0.6,0.1,0.9,0.1l0.4-1.5c-0.3,0-0.5,0-0.8-0.1c-0.3,0-0.5-0.1-0.8-0.1
		c-0.3,0-0.6,0-1,0c-2,0-3.8,0.5-5.4,1.4c-1.6,0.9-2.6,2.4-3.1,4.3c-0.3,1.1-0.3,2.1,0,3c0.3,0.9,0.7,1.8,1.4,2.7
		c0.6,0.9,1.3,1.7,2,2.6c0.7,0.8,1.4,1.7,2,2.5c0.6,0.9,1.1,1.7,1.4,2.6c0.3,0.9,0.3,1.9,0.1,2.8c-0.5,1.8-1.5,3.2-2.9,4.1
		c-1.5,0.9-3.3,1.4-5.4,1.4c-1.3,0-2.4-0.1-3.4-0.3c-0.5-0.1-1.1-0.2-1.5-0.3L399.4,113.7z"/>
	<path fill="#E27F3A" d="M427.1,106.9c0.8,0.3,1.6,0.5,2.4,0.6c0.7,0.2,1.5,0.3,2.4,0.5c0.9,0.1,1.9,0.2,2.8,0.2
		c1.7,0,2.7-0.6,3.1-1.9c0.1-0.5,0-1-0.4-1.5c-0.4-0.5-0.9-1.1-1.5-1.7c-0.6-0.6-1.3-1.3-2-2.1c-0.7-0.8-1.3-1.6-1.9-2.6
		c-0.5-1-0.9-2.1-1.1-3.3c-0.2-1.2-0.1-2.6,0.3-4.2c0.5-1.8,1.2-3.3,2.2-4.7c1-1.4,2.2-2.5,3.5-3.4c1.4-0.9,2.9-1.6,4.5-2.1
		c1.6-0.5,3.3-0.7,5-0.7c0.9,0,1.8,0,2.7,0.1c0.9,0.1,1.7,0.2,2.3,0.3c0.8,0.1,1.6,0.2,2.3,0.3L451,91.2c-0.3,0-0.6-0.1-1-0.1
		c-0.3,0-0.6-0.1-1-0.1c-0.4,0-0.8-0.1-1.2-0.1c-0.2,0-0.5,0-0.8,0c-0.3,0-0.7,0.1-1,0.1c-0.3,0.1-0.6,0.2-0.9,0.4
		c-0.3,0.2-0.5,0.5-0.5,0.8c-0.1,0.3,0.1,0.7,0.5,1.1c0.4,0.5,0.9,1,1.4,1.6c0.6,0.6,1.2,1.3,1.9,2.1c0.7,0.8,1.2,1.7,1.7,2.7
		c0.5,1,0.8,2.2,0.9,3.5c0.2,1.3,0,2.7-0.4,4.3c-0.4,1.7-1.1,3.2-2,4.7c-0.9,1.5-2.1,2.7-3.4,3.8c-1.4,1.1-3,1.9-4.9,2.6
		s-4,0.9-6.4,0.9c-1.4,0-2.7-0.1-3.9-0.2c-1.2-0.1-2.2-0.3-3.1-0.5c-1-0.2-2-0.4-2.8-0.7L427.1,106.9z M430,113.7
		c0.5,0.1,1,0.2,1.6,0.3c0.5,0.1,1,0.1,1.6,0.2c0.6,0.1,1.1,0.1,1.7,0.1c1,0,2.1-0.1,3.1-0.4c1.1-0.2,2-0.7,3-1.2
		c0.9-0.6,1.8-1.3,2.5-2.2c0.7-0.9,1.2-2,1.6-3.3c0.3-1.1,0.3-2.1,0-3.1c-0.3-1-0.7-1.9-1.3-2.8c-0.6-0.9-1.3-1.8-2-2.6
		c-0.7-0.8-1.4-1.7-2-2.5c-0.6-0.9-1.1-1.7-1.4-2.6s-0.4-1.7-0.1-2.6c0.4-1.4,1.1-2.4,2.1-3.1s2.5-1.1,4.4-1.1c0.3,0,0.6,0,0.9,0
		c0.3,0,0.6,0,0.9,0.1c0.3,0,0.6,0.1,0.9,0.1l0.4-1.5c-0.3,0-0.5,0-0.8-0.1c-0.3,0-0.5-0.1-0.8-0.1c-0.3,0-0.6,0-1,0
		c-2,0-3.8,0.5-5.4,1.4c-1.6,0.9-2.6,2.4-3.1,4.3c-0.3,1.1-0.3,2.1,0,3c0.3,0.9,0.7,1.8,1.4,2.7c0.6,0.9,1.3,1.7,2,2.6
		c0.7,0.8,1.4,1.7,2,2.5c0.6,0.9,1.1,1.7,1.4,2.6s0.3,1.9,0.1,2.8c-0.5,1.8-1.5,3.2-2.9,4.1c-1.5,0.9-3.3,1.4-5.4,1.4
		c-1.3,0-2.4-0.1-3.4-0.3c-0.5-0.1-1.1-0.2-1.5-0.3L430,113.7z"/>
	<g>
		<path fill="#FFFFFF" d="M332.1,40.8h-3.3l-6.9,26h3.3c4.7,0,8.7-1.1,11.9-3.3c3.2-2.2,5.4-5.4,6.5-9.8s0.7-7.6-1.4-9.7
			C340.2,41.9,336.8,40.8,332.1,40.8z M339,53.8c-0.7,2.8-2,4.8-3.9,6.2c-1.9,1.3-4.2,2-7,2l4.3-16.3c2.8,0,4.8,0.7,6,2
			C339.5,49,339.8,51,339,53.8z"/>
		<path fill="#FFFFFF" d="M351.5,45.6c-0.4-2.4-1.3-4.3-2.7-5.9s-3.5-2.8-6-3.6c-2.5-0.8-5.6-1.2-9.1-1.2h-10.4l0,0L210.2,35l112,4
			l-3.3,12.4l-137.9,0.5l136.6,4.1l-3.2,12L173.3,70l140,2.7h10.4c3.5,0,6.7-0.4,9.7-1.2c3-0.8,5.6-2,7.9-3.6
			c2.3-1.6,4.3-3.6,5.9-5.9c1.6-2.4,2.8-5.1,3.7-8.2C351.6,50.7,351.8,47.9,351.5,45.6z M345.2,53.8c-1.2,4.6-3.5,8.1-7,10.6
			c-3.4,2.5-7.9,3.8-13.3,3.8h-4.8l7.6-28.8h4.8c5.4,0,9.2,1.2,11.4,3.7C345.9,45.7,346.4,49.2,345.2,53.8z"/>
	</g>
	<path fill="#E27F3A" d="M247.7,90.7l2.6-9.9h-20l-114.7,0l111.6,4L224,97.3L86.5,97.8l136.2,4.1l-3.2,12.2L78.6,116l140,2.6h22.2
		l2.6-9.9h-10.5l1.2-4.4h9.9l2.5-9.4h-9.9l1.1-4.2H247.7z M241.2,98.9l-0.4,1.4h-10.6l-3.3,12.4h11.2l-0.4,1.4h-12.7l7.6-28.8h12.7
		l-0.4,1.4h-11.2l-3.2,12.3H241.2z"/>
</g>
</svg>
